<svg width="258" height="258" viewBox="0 0 258 258" fill="none" xmlns="http://www.w3.org/2000/svg">
<g clip-path="url(#clip0_81_143)">
<path d="M0 0H228L258 258H0V0Z" fill="url(#paint0_linear_81_143)"/>
<path fill-rule="evenodd" clip-rule="evenodd" d="M-175 -175H45.628L49.068 -150H-149H-150V-149V81H-175V-175ZM-149 81H-150V82H-175H-176V81V-175V-176H-175H46.5L50.078 -150H49.068L49.206 -149H-149V81ZM-124 81H-149V82H-150V107V108H-149H-124V133V134H-123H-98V159V160H-97H-72V185V186H-71H-46V211V212H-45H-20V237V238H-19H-1V258C-1 258 253 258 257 258C261 258 228 0 228 0H205.252L202.5 -20H180.078L176.5 -46H154.078L150.5 -72H128.078L124.5 -98H102.078L98.5 -124H76.078L72.5 -150H50.078L50.215 -149H49.206L52.646 -124H-123H-124V-123V81ZM-123 81H-124V82H-149V107H-124V108H-123V133H-98V134H-97V159H-72V160H-71V185H-46V186H-45V211H-20V212H-19V237H-1V238H236.991H238L237.862 237L205.252 0H204.243L201.628 -19H180.215L180.078 -20H179.068L175.628 -45H154.215L154.078 -46H153.068L149.628 -71H128.215L128.078 -72H127.068L123.628 -97H102.215L102.078 -98H101.068L97.628 -123H76.215L76.078 -124H75.068L71.628 -149H50.215L53.655 -124H52.646L52.783 -123H-123V81ZM-98 81H-123V82H-124V107H-123V108H-98V133H-97V134H-72V159H-71V160H-46V185H-45V186H-20V211H-19V212H-1V237H236.853L204.243 0H182.829L180.215 -19H179.206L179.068 -20H157.655L154.215 -45H153.206L153.068 -46H131.655L128.215 -71H127.206L127.068 -72H105.655L102.215 -97H101.206L101.068 -98H79.655L76.215 -123H75.206L75.068 -124H53.655L53.793 -123H52.783L56.223 -98H-97H-98V-97V81ZM-97 81H-98V82H-123V107H-98V108H-97V133H-72V134H-71V159H-46V160H-45V185H-20V186H-19V211H-1V212H210.991H212L211.862 211L182.829 0H181.82L179.206 -19H157.793L157.655 -20H156.646L153.206 -45H131.793L131.655 -46H130.646L127.206 -71H105.793L105.655 -72H104.646L101.206 -97H79.793L79.655 -98H78.646L75.206 -123H53.793L57.233 -98H56.223L56.361 -97H-97V81ZM-72 81H-97V82H-98V107H-97V108H-72V133H-71V134H-46V159H-45V160H-20V185H-19V186H-1V211H210.853L181.82 0H160.407L157.793 -19H156.783L156.646 -20H135.233L131.793 -45H130.783L130.646 -46H109.233L105.793 -71H104.783L104.646 -72H83.233L79.793 -97H78.783L78.646 -98H57.233L57.37 -97H56.361L59.801 -72H-71H-72V-71V81ZM-71 81H-72V82H-97V107H-72V108H-71V133H-46V134H-45V159H-20V160H-19V185H-1V186H184.991H186L185.862 185L160.407 0H159.398L156.783 -19H135.37L135.233 -20H134.223L130.783 -45H109.37L109.233 -46H108.223L104.783 -71H83.37L83.233 -72H82.223L78.783 -97H57.37L60.81 -72H59.801L59.938 -71H-71V81ZM-46 81H-71V82H-72V107H-71V108H-46V133H-45V134H-20V159H-19V160H-1V185H184.853L159.398 0H137.984L135.37 -19H134.361L134.223 -20H112.81L109.37 -45H108.361L108.223 -46H86.81L83.37 -71H82.361L82.223 -72H60.81L60.948 -71H59.938L63.378 -46H-45H-46V-45V81ZM-45 81H-46V82H-71V107H-46V108H-45V133H-20V134H-19V159H-1V160H158.991H160L159.862 159L137.984 0H136.975L134.361 -19H112.948L112.81 -20H111.801L108.361 -45H86.948L86.81 -46H85.801L82.361 -71H60.948L64.388 -46H63.378L63.516 -45H-45V81ZM-20 81H-45V82H-46V107H-45V108H-20V133H-19V134H-1V159H158.853L136.975 0H115.562L112.948 -19H111.938L111.801 -20H90.388L86.948 -45H85.938L85.801 -46H64.388L64.525 -45H63.516L66.956 -20H-19H-20V-19V81ZM-19 81H-20V82H-45V107H-20V108H-19V133H-1V134H132.991H134L133.862 133L115.562 0H114.553L111.938 -19H90.525L90.388 -20H89.378L85.938 -45H64.525L67.965 -20H66.956L67.093 -19H-19V81ZM-1 81H-19V82H-20V107H-19V108H-1V133H132.853L114.553 0H93.14L90.525 -19H89.516L89.378 -20H67.965L68.103 -19H67.093L69.708 0H-1V81ZM-1 82H-19V107H-1V108H106.991H108L107.862 107L93.14 0H92.13L89.516 -19H68.103L70.717 0H69.708L80.853 81H-1V82ZM92.13 0L106.853 107H-1V82H80.991H82L81.862 81L70.717 0H92.13Z" fill="black"/>
</g>
<defs>
<linearGradient id="paint0_linear_81_143" x1="258" y1="139.5" x2="-3.51691e-06" y2="112" gradientUnits="userSpaceOnUse">
<stop stop-color="#ECD825"/>
<stop offset="1" stop-color="#A4950F"/>
</linearGradient>
<clipPath id="clip0_81_143">
<rect width="258" height="258" fill="white"/>
</clipPath>
</defs>
</svg>
